<svg width="33" height="53" viewBox="0 0 33 53" fill="none" xmlns="http://www.w3.org/2000/svg">
<g clip-path="url(#clip0_98_170)">
<path d="M1.2609 0C0.530906 0 0 0.530906 0 1.2609V51.896C0 52.626 0.530906 53.1569 1.2609 53.1569H31.9871C32.7171 53.1569 33.248 52.626 33.248 51.896V1.2609C33.248 0.530906 32.7171 0 31.9871 0L1.2609 0ZM6.63632 6.63632H26.5453V39.8179H6.63632V6.63632ZM16.5908 43.1361C18.449 43.1361 19.909 44.5961 19.909 46.4542C19.909 48.3124 18.449 49.7724 16.5908 49.7724C14.7326 49.7724 13.2726 48.3124 13.2726 46.4542C13.2726 44.5961 14.7326 43.1361 16.5908 43.1361Z" fill="#A3A3A3"/>
</g>
<defs>
<clipPath id="clip0_98_170">
<rect width="33" height="53" fill="white"/>
</clipPath>
</defs>
</svg>
