<svg width="250" height="250" viewBox="0 0 250 250" fill="none" xmlns="http://www.w3.org/2000/svg">
<rect x="3" y="3" width="244" height="244" rx="122" fill="#A3A3A3"/>
<path d="M125 58.6952C106.766 58.6952 91.8476 77.2606 91.8476 100.136C91.8476 123.011 106.766 141.576 125 141.576C143.234 141.576 158.152 123.011 158.152 100.136C158.152 77.2606 143.234 58.6952 125 58.6952ZM90.3557 141.576C72.785 142.405 58.6952 156.826 58.6952 174.729V191.305H191.305V174.729C191.305 156.826 177.381 142.405 159.644 141.576C150.693 151.688 138.427 158.152 125 158.152C111.573 158.152 99.3069 151.688 90.3557 141.576Z" fill="#FAFAFA"/>
<rect x="3" y="3" width="244" height="244" rx="122" stroke="white" stroke-width="6"/>
</svg>
