<svg width="17" height="28" viewBox="0 0 17 28" fill="none" xmlns="http://www.w3.org/2000/svg">
<g clip-path="url(#clip0_80_19)">
<path d="M0.649555 0C0.273497 0 0 0.280478 0 0.666136V27.4168C0 27.8024 0.273497 28.0829 0.649555 28.0829H16.4782C16.8542 28.0829 17.1277 27.8024 17.1277 27.4168V0.666136C17.1277 0.280478 16.8542 0 16.4782 0L0.649555 0ZM3.41871 3.50598H13.6748V21.0359H3.41871V3.50598ZM8.54678 22.7889C9.50401 22.7889 10.2561 23.5602 10.2561 24.5419C10.2561 25.5235 9.50401 26.2948 8.54678 26.2948C7.58954 26.2948 6.83742 25.5235 6.83742 24.5419C6.83742 23.5602 7.58954 22.7889 8.54678 22.7889Z" fill="#A3A3A3"/>
</g>
<defs>
<clipPath id="clip0_80_19">
<rect width="17" height="28" fill="white"/>
</clipPath>
</defs>
</svg>
