<svg width="533" height="110" viewBox="0 0 533 110" fill="none" xmlns="http://www.w3.org/2000/svg">
<g clip-path="url(#clip0_98_12)">
<g clip-path="url(#clip1_98_12)">
<rect x="426" y="3" width="103.89" height="103.89" rx="51.9451" fill="#A3A3A3"/>
<path d="M477.945 25.8001C469.93 25.8001 463.373 33.9607 463.373 44.0157C463.373 54.0707 469.93 62.2313 477.945 62.2313C485.96 62.2313 492.518 54.0707 492.518 44.0157C492.518 33.9607 485.96 25.8001 477.945 25.8001ZM462.717 62.2313C454.993 62.5956 448.8 68.9347 448.8 76.8038V84.0901H507.09V76.8038C507.09 68.9347 500.97 62.5956 493.173 62.2313C489.239 66.6759 483.847 69.5176 477.945 69.5176C472.043 69.5176 466.651 66.6759 462.717 62.2313Z" fill="#FAFAFA"/>
<rect x="426" y="3" width="103.89" height="103.89" rx="51.9451" stroke="white" stroke-width="6"/>
</g>
<g clip-path="url(#clip2_98_12)">
<rect x="285" y="3" width="103.89" height="103.89" rx="51.9451" fill="#A3A3A3"/>
<path d="M336.945 25.8001C328.93 25.8001 322.373 33.9607 322.373 44.0157C322.373 54.0707 328.93 62.2313 336.945 62.2313C344.96 62.2313 351.518 54.0707 351.518 44.0157C351.518 33.9607 344.96 25.8001 336.945 25.8001ZM321.717 62.2313C313.993 62.5956 307.8 68.9347 307.8 76.8038V84.0901H366.09V76.8038C366.09 68.9347 359.97 62.5956 352.173 62.2313C348.239 66.6759 342.847 69.5176 336.945 69.5176C331.043 69.5176 325.651 66.6759 321.717 62.2313Z" fill="#FAFAFA"/>
<rect x="285" y="3" width="103.89" height="103.89" rx="51.9451" stroke="white" stroke-width="6"/>
</g>
<g clip-path="url(#clip3_98_12)">
<rect x="144" y="3" width="103.89" height="103.89" rx="51.9451" fill="#A3A3A3"/>
<path d="M195.945 25.8001C187.93 25.8001 181.373 33.9607 181.373 44.0157C181.373 54.0707 187.93 62.2313 195.945 62.2313C203.96 62.2313 210.518 54.0707 210.518 44.0157C210.518 33.9607 203.96 25.8001 195.945 25.8001ZM180.717 62.2313C172.993 62.5956 166.8 68.9347 166.8 76.8038V84.0901H225.09V76.8038C225.09 68.9347 218.97 62.5956 211.173 62.2313C207.239 66.6759 201.847 69.5176 195.945 69.5176C190.043 69.5176 184.651 66.6759 180.717 62.2313Z" fill="#FAFAFA"/>
<rect x="144" y="3" width="103.89" height="103.89" rx="51.9451" stroke="white" stroke-width="6"/>
</g>
<g clip-path="url(#clip4_98_12)">
<rect x="3" y="3" width="103.89" height="103.89" rx="51.9451" fill="#A3A3A3"/>
<path d="M54.9451 25.8001C46.9303 25.8001 40.3727 33.9607 40.3727 44.0157C40.3727 54.0707 46.9303 62.2313 54.9451 62.2313C62.96 62.2313 69.5176 54.0707 69.5176 44.0157C69.5176 33.9607 62.96 25.8001 54.9451 25.8001ZM39.7169 62.2313C31.9935 62.5956 25.8002 68.9347 25.8002 76.8038V84.0901H84.0901V76.8038C84.0901 68.9347 77.9697 62.5956 70.1734 62.2313C66.2388 66.6759 60.847 69.5176 54.9451 69.5176C49.0433 69.5176 43.6515 66.6759 39.7169 62.2313Z" fill="#FAFAFA"/>
<rect x="3" y="3" width="103.89" height="103.89" rx="51.9451" stroke="white" stroke-width="6"/>
</g>
</g>
<defs>
<clipPath id="clip0_98_12">
<rect width="533" height="110" fill="white"/>
</clipPath>
<clipPath id="clip1_98_12">
<rect width="110" height="110" fill="white" transform="translate(423)"/>
</clipPath>
<clipPath id="clip2_98_12">
<rect width="110" height="110" fill="white" transform="translate(282)"/>
</clipPath>
<clipPath id="clip3_98_12">
<rect width="110" height="110" fill="white" transform="translate(141)"/>
</clipPath>
<clipPath id="clip4_98_12">
<rect width="110" height="110" fill="white"/>
</clipPath>
</defs>
</svg>
