<svg width="350" height="350" viewBox="0 0 350 350" fill="none" xmlns="http://www.w3.org/2000/svg">
<rect x="3" y="3" width="344" height="344" rx="172" fill="#A3A3A3"/>
<path d="M175 82.1733C149.473 82.1733 128.587 108.165 128.587 140.19C128.587 172.215 149.473 198.207 175 198.207C200.527 198.207 221.413 172.215 221.413 140.19C221.413 108.165 200.527 82.1733 175 82.1733ZM126.498 198.207C101.899 199.367 82.1733 219.557 82.1733 244.62V267.827H267.827V244.62C267.827 219.557 248.333 199.367 223.502 198.207C210.97 212.363 193.797 221.413 175 221.413C156.203 221.413 139.03 212.363 126.498 198.207Z" fill="#FAFAFA"/>
<rect x="3" y="3" width="344" height="344" rx="172" stroke="white" stroke-width="6"/>
</svg>
