<svg width="35" height="35" viewBox="0 0 35 35" fill="none" xmlns="http://www.w3.org/2000/svg">
<path d="M19.8249 0.0433575C28.1929 0.0433575 35 6.85048 35 15.2185C35 23.5865 28.1929 30.3936 19.8249 30.3936C17.2668 30.3936 14.7521 29.7866 12.6275 28.6159C12.4574 28.8207 12.2687 29.0094 12.0639 29.1796L7.72815 33.5153C7.3278 33.9658 6.8396 34.3297 6.29352 34.5847C5.74744 34.8397 5.15501 34.9804 4.55259 34.9981C3.95018 35.0158 3.35049 34.9102 2.79036 34.6878C2.23023 34.4654 1.72146 34.1308 1.29531 33.7047C0.869152 33.2785 0.534594 32.7698 0.312178 32.2096C0.0897615 31.6495 -0.0158171 31.0498 0.00191637 30.4474C0.0196498 29.845 0.160324 29.2526 0.415304 28.7065C0.670284 28.1604 1.03419 27.6722 1.48467 27.2718L5.82042 22.9361C6.03163 22.7248 6.2641 22.5359 6.51414 22.3725C5.34349 20.2479 4.60641 17.7766 4.60641 15.1751C4.60641 6.80712 11.4135 0 19.7815 0L19.8249 0.0433575ZM19.8249 4.3791C13.7982 4.3791 8.98552 9.19178 8.98552 15.2185C8.98552 18.0801 10.0261 20.7249 11.8471 22.676C11.8905 22.7193 11.9338 22.7627 11.9772 22.806C12.182 22.9762 12.3707 23.1649 12.5408 23.3697C14.4486 25.104 17.05 26.1012 19.8682 26.1012C25.8949 26.1012 30.7076 21.2885 30.7076 15.2618C30.7076 9.23514 25.8949 4.42246 19.8682 4.42246L19.8249 4.3791Z" fill="#A0BDE9"/>
</svg>
